<?xml version="1.0" encoding="UTF-8"?>
<svg id="Capa_1" data-name="Capa 1" xmlns="http://www.w3.org/2000/svg" viewBox="0 0 465.55 284.02">
  <defs>
    <style>
      .cls-1 {
        fill: #050006;
        fill-rule: evenodd;
      }
    </style>
  </defs>
  <path class="cls-1" d="M368.47,0c3.51,2.08,5.61,5.01,7.06,10.65-10.17,9.65-53.83,47.03-83.02,73.83-17.6,16.63-48.39,42.4-80.96,90.87-2.65,3.95-7.98,12.08-10.97,17.75,148.23.12,241.4-.17,264.79,0v6.39c-46.3-.2-148.43.11-241.27-.19-2.85,3.96-8.49,8.49-11.14,10.17-5.46,4.45-11.9,6.69-16.29,7.06-6.46.62-11.55-1.56-14.55-4.97-1.89-2.81-1.59-7.08-.71-12.07-33.97-.19-116.63-.53-180.7,0-.59-1.73-.38-4.44-.35-7.06,4.91.35,127.09.67,183.19.67,7.35-23.51,51.3-71.71,45.4-64.95,6.43-7.36,5.74-9.91,2.62-8.3-.26.14-.55.3-.84.18-11.01,4.08-88.1,75.97-107.87,57.82-6.46-6.33-4.83-10.19,3.55-22.33-1.58,0-4,2.15-9.97,4.61-12.1,5.95-31.6,11.03-34.39-6.42-.03-8.65,24.33-43.52,39.36-40.78,3.53,2.39,6.94,6.32,5.36,10.26-6.11,6.24-11.89,12.74-16.72,18.46-1.78,2.1-4.93,7.17-3.9,9.97,6.25.5,18.46-5,26.93-9.81,8.84-4.53,14.93-8.2,24.53-14.36,8.43-5.41,35.46-25.58,53.6-30.49,8.37-1.8,14.27,1.97,19.52,3.19,10.46-6.08,36.29-25.37,100.8-74.89,21.29-15.92,29.82-23.91,36.95-25.24ZM25.95,144.11c7.05-3.45,19.97-14.64,30.52-29.76,26.63-38.17,51.17-80.68,73.48-102.28,9.81-.14,16.89.21,19.88,5.71,2.3,3.81,3.08,4.95,1.74,6.74-2.76,4.71-7.5,9.02-10.97,11.68-.35.56-13.05,11.44-18.85,17.75-3.03,3.3-8.03,10.98-10.65,16.36-2.93-4.17-4.34-4.77-6.03-3.19-3.62,2.59-17,23.3-35.25,48.33-27.06,37.11-48.93,67.87-57.39,70.58-9.04-.93-7.23-3.99-8.87-27.01C2.48,121.92,1.35,60.92,11.71,14.59c1.18-.94,3.68-1.37,6.42-2.13,3.05-.07,4.56.33,6.03.71,7.45,3.1,7.4,8.82,7.45,16.65.69,7.78-5.93,49.18-7.13,77.73-.46,10.91-.82,20.3,1.46,36.56ZM155.47,79.15c4.31.79,10.33,3.05,5.68,9.62-19.85,29.73-43.86,19.69-18.78-5.68,2.04-1.37,7.91-3.56,13.1-3.94ZM328.36,98.32c7.75.31,15.96,8.43,10.97,18.49-9.53,20.16-33.77,23.43-38.65,23.43-2.7.21-10.47-2.79-13.13-3.9-3.79,3.36-11.27,10.75-7.84,15.94,15.96,7.9,90.96-26.19,82.11-22.61,10.79-6.15,11.62-6.57,16.57-8.94.77,1.59-1.96-2.02-1.42-5.71,6.03-2.36,11.85-4.75,19.88-6.35,3.65-.26,7.6-1.94,10.68-2.17,5.28-.33,12.98-.39,16.33,1.42,5.99,2.8,10.21,8.73,10.97,13.84,5.06-.31,20.71-.38,23.46,2.13,2.34,3.84.84,3.67-1.77,5.68-8.85-.67-13.94-.53-24.53,1.06-11.51,14.13-49.17,31.43-58.57,28.75-15.32-4.36-15.75-13.82-15.94-17.65-9.16,2.76-83.06,43.5-93.74,11.97-2.57-7.6,6.86-20.01,11.39-25.56,11.82-13.15,35.43-27.56,53.24-29.82ZM327.97,112.16c-4.45-.37-15.66,4.47-22.33,8.52-3.88,2.68-8.06,5.2-10.6,8.02,3.76,1.89,9.13,3.77,14.81.06,2.61-1.47,6.07-3.57,8.36-5.23,2.36-1.71,6.7-5.03,8.4-7.64,2.06-2.94,1.36-3.7,1.36-3.73ZM207.61,118.13c.7-2.44.21-3.45-.21-3.91-4.31-4.8-31.53,13.44-48.47,29.45-5.96,5.64-8.24,8.72-7.51,9.85.95,1.47,6.78-.72,9.73-1.85,10.66-4.08,19.61-10.2,32.68-21.28,3.47-2.94,8.23-7.08,13.79-12.26ZM414.97,117.52c-.62.89-2.18.81-3.9.35-11-.78-35.77,23.31-32.34,24.85.4,1.43,10.28-.96,14.2-3.19,11.11-5.11,16.34-9.4,17.43-12.07,1.52-1.7.42-3.72,2.48-4.97,2.43-.97,5.07.02,5.68-2.52.6-.42.59-.6.35-1.42-.41-.25-1.34-.35-2.84-.67-.06.05-.02.11-1.06-.35ZM198.66,199.13c-6.09,13.55,6.15,5.67,12.53,0h-12.53ZM374.47,242.46c2.31-.19,3.97-1.86,6.39-2.52,7.88-2.15,13.44,3.08,14.2,8.87.41,3.14-.15,6.04-.71,7.81-.79,2.5-1.54,4.43-2.84,6.39-3.25,4.88-13.5,11.53-21.97,6.74-5.97-3.69-6.99-12.32-5.32-20.91,4.64-17.67,12.57-28.39,29.78-28.43-.5,6.38.09,5.19-7.45,6.78-5.84,1.8-11.23,8.73-12.07,15.26ZM110.44,249.09c-1.69,6.09-5.14,12.42-11.76,16.44-7.55,5.28-15.75,6.08-19.58,4.13-10.69-5.45-14.49-14.01-7.43-32.55,8.88-23.32,48.19-22.03,38.77,11.97ZM243.17,220.46c13.33.16,21.84,11.49,18.07,25.91-2.91,11.68-8.35,17.39-14.87,20.91-2.98,1.87-12.7,4.51-17.43,2.52-15.4-5.14-12.44-28.03-2.84-40.11,5.75-6.73,17.68-9.5,17.07-9.23ZM13.52,243.14c4.22,0,10.5-.24,14.91-.67.36,3.01-.5,4.97-1.42,7.77-4.09-.15-10.06-.21-14.23,0-1.23,4.73-1.37,9.35-3.19,18.85-2.53.75-5.86.48-9.58.67,1.49-10.2,7.08-41.5,7.81-48.24,3.16.49,5.83,0,8.55,0h19.52c-.09,3.19-.58,5.53-1.42,8.84-6.16-.22-13.55-1.02-19.52-1.03-.04,3.9-.51,6.91-1.42,13.81ZM151.21,221.52c11.12,0,24.37.67,35.18.67-.16,2.07-.5,4.91-1.77,7.13-2.72.1-8.01-.12-12.1-.04-1.08,5.77-5.61,32.05-6.74,39.79-1.98.67-6.22.7-9.23.67,3.06-15.56,6.74-40.46,6.74-40.46-4.16.22-8.31.18-13.45.04.77-3.23.58-4.18,1.38-7.81ZM79.19,238.88c-10.87,26.68,18.55,34.78,23.98,5.57,2.86-15.38-15.66-24.65-23.98-5.57ZM233.93,262.49c3.59.73,11.36,3.18,17.76-12.25,3.55-7.41,2.17-18.75-4.84-21.44-17.81-5.51-27.13,27.93-12.92,33.69ZM463.71,236.17c2.81,4.08,2,10.04.24,15.17-2.39,10.54-3.71,15.91-13.52,19.13-1.71.56-4.63.7-7.56.1-17.33-3.53-6.45-31.19-2.02-34.89,3.52-2.94,14.89-11.12,22.87.48ZM303.16,231.1c25.24-4.25,22.64,9.43,21.26,12.07-1.23,2.97-5.43,6.15-9.19,8.13,3.37.83,6.14,2.24,7.42,4.61,1.34,2.48,6.94,15.03-16.65,25.24-1.99,1.36-9.99,3.25-13.49,2.8.37-2.79.24-3.39,0-5.32,4.42-.54,8.18-1.28,12.07-3.16,5.8-1.72,12.67-6.07,9.23-13.88-1.03-5.43-9.71-5.33-12.78-4.97.89-2.93,1.26-4.26,1.06-5.68,9.75-1.35,16.57-4.8,15.23-9.58-1.08-3.82-5.31-4.47-15.23-3.19.68-2.51.98-3.88,1.06-7.06ZM445.1,240.69c-1.95,4.03-6.72,20.35-.97,22.67,2.9,2.37,7.47-.72,8.78-2.48,2.79-3.74,6.46-15.59,2.52-22.01-3.13-2.89-7.69-2.9-10.33,1.81ZM375.89,246.37c-2.55,1.67-2.62,2.09-3.55,6.35-2.22,15.54,7.54,11.95,9.23,10.68,12.85-14.17.42-21.48-5.68-17.04Z"/>
</svg>